<svg id="Camada_1" data-name="Camada 1" xmlns="http://www.w3.org/2000/svg" viewBox="0 0 125.26 38.02"><defs><style>.cls-1{fill:#fff;fill-rule:evenodd;}</style></defs><title>monograma</title><path class="cls-1" d="M24.72,23.68c.37.07.74.12,1.13.15s.79.05,1.22.05a12.65,12.65,0,0,0,1.39-.06c.4,0,.79-.1,1.15-.17q-.11,6.86-.15,12.25c0,3.6-.05,6-.05,7.26A33.9,33.9,0,0,0,30,50.64a10.33,10.33,0,0,0,2.06,4.25,9.27,9.27,0,0,0,3.72,2.71,13.29,13.29,0,0,0,5.09.93,13.08,13.08,0,0,0,5.1-1,9.3,9.3,0,0,0,3.74-2.78,10.93,10.93,0,0,0,2-4.61,54.11,54.11,0,0,0,.59-9.71c0-3.06,0-6-.05-8.73s-.08-5.45-.15-8.05a6,6,0,0,0,.8.15,6.48,6.48,0,0,0,.85.05,6.26,6.26,0,0,0,1-.06,7.47,7.47,0,0,0,.82-.14c-.09,2.14-.15,4.09-.2,5.88s-.06,3.08-.06,3.89v1.38a126.88,126.88,0,0,1-.5,14,16.33,16.33,0,0,1-1.7,5.84A12,12,0,0,1,48,59.41,17.91,17.91,0,0,1,40,61q-8,0-11.63-3.86t-3.66-12.3c0-.21,0-1.55.12-4s.12-4.81.12-7q0-2.52-.18-8.67c0-.64,0-1.14-.05-1.47ZM61.64,60.31c.17-1.87.29-3.91.37-6.13s.11-4.71.11-7.49c0-3.83,0-7.68-.12-11.5s-.18-7.67-.33-11.51q1,.05,2.47.08t4.83,0q4,0,6.62,0l5.23-.08c0,.19,0,.49,0,.89s0,.7,0,.89,0,.48,0,.86,0,.65,0,.85A35.11,35.11,0,0,0,76,26.56q-3-.2-8.13-.29H66.61c0,1-.09,2.08-.12,3.22s0,2.76,0,4.87v5.37h4.26q2.57,0,4.74-.11c1.45-.07,2.9-.18,4.33-.34,0,.18,0,.38,0,.6s0,.57,0,1,0,.72,0,.93,0,.38,0,.56c-2.93-.16-5.34-.27-7.22-.33S69.17,42,68,42H66.46V54.32c0,2,0,3.34,0,4.1a14.09,14.09,0,0,0,.17,1.89c-.42-.07-.85-.12-1.29-.15s-.91-.05-1.42-.05-.85,0-1.22.05a10.37,10.37,0,0,0-1.09.15Zm21.22-2.14a27.86,27.86,0,0,0,.78-2.84,22.46,22.46,0,0,0,.4-2.84,10.18,10.18,0,0,0,3.52,4.7,8.89,8.89,0,0,0,5.33,1.69,7.46,7.46,0,0,0,5.59-2.14A7.87,7.87,0,0,0,100.56,51a6.33,6.33,0,0,0-1.21-4,10.06,10.06,0,0,0-4.22-2.74L90.79,42.4a13.29,13.29,0,0,1-5.42-3.69,8.28,8.28,0,0,1-1.7-5.32,9.64,9.64,0,0,1,3.15-7.44A11.57,11.57,0,0,1,95,23.05a17.68,17.68,0,0,1,4.16.48,19,19,0,0,1,4,1.48c-.26.57-.52,1.2-.77,1.88a21.87,21.87,0,0,0-.72,2.26,9.76,9.76,0,0,0-3.27-3.1,8.39,8.39,0,0,0-4.14-1,6.24,6.24,0,0,0-4.7,1.8,6.66,6.66,0,0,0-1.74,4.85A5.72,5.72,0,0,0,89,35.43a11.27,11.27,0,0,0,4.18,2.79l4.34,1.88a13.16,13.16,0,0,1,5.46,3.8,8.92,8.92,0,0,1,1.64,5.52,10.84,10.84,0,0,1-3.51,8.41A13.23,13.23,0,0,1,91.87,61a15.92,15.92,0,0,1-4.92-.73,13.56,13.56,0,0,1-4.08-2.12Zm24.84,2.14q1-4.42,2.25-12.84T113.22,23h.89q4.76,9.53,8.32,16.42t6.76,12.7q3.51-6.21,7.38-13.32T145.05,23h.71q.74,7.06,1.72,15.74T150,60.31c-.44-.09-.85-.15-1.24-.2a10.32,10.32,0,0,0-1.16-.06,10,10,0,0,0-1.14.06c-.39,0-.81.11-1.24.2q-.68-9.42-1.43-16.55t-1.38-10.21q-5,8.35-8.62,15.46a97.91,97.91,0,0,0-5.11,11.24h-.73a34.31,34.31,0,0,0-1.77-4.66Q125,53,122.8,49.05l-8.35-15.44q-1.23,8.63-1.91,15.55t-.73,11.15a9,9,0,0,0-1-.2,7,7,0,0,0-1-.06,7.75,7.75,0,0,0-1,.06c-.35,0-.73.11-1.15.2Z" transform="translate(-24.72 -23)"/></svg>